<?xml version="1.0" encoding="utf-8"?>
<svg version="1.1" xmlns="http://www.w3.org/2000/svg" xmlns:xlink="http://www.w3.org/1999/xlink" x="0px" y="0px"
     viewBox="0 0 32 32" xml:space="preserve">
<g id="Objects">
	<g>
		<g>
			<path style="fill:#0DA037;" d="M20.37,17.6c-1.87,1.1-4,1.26-6.64,1.05c-4.05-0.33-8.23,0.52-10.15,3.73
				c0.72-1.82,2.52-3.58,5.51-4.57c1.55-0.49,3.33-0.76,5.08-1.05c1.75-0.29,3.52-0.61,4.98-1.18c1.44-0.52,2.55-1.31,2.55-2.16
				c-0.83,1.59-2.46,2.29-5.5,3.14c-2.5,0.98-5.08,1.42-7.12,2.37c0.03-4.24,5.16-5.3,6.99-6.32c1.23-0.65,2.29-1.8,2.74-4.47
				c0.91,0.27,2.16,1.56,2.16,3.48C25.16,13.93,23.57,16.42,20.37,17.6z"/>
		</g>
		<g>
			<path style="fill:#0DA037;" d="M27.08,24.06c-0.91,1.69-2.71,2.85-4.63,3.37c-2.55,0.69-5.39,0.32-7.65-1.01
				c-1.58-0.92-2.86-2.3-3.67-3.89c2.85-0.26,5.05,1.65,9.16,1.19c2.5-0.28,3.96-1.25,4.87-2.71c-1.74,1.33-3.96,1.98-6.12,1.78
				c-4.08-0.37-4.81-1.5-8.13-1.38c-2.38,0.09-5.09,1.06-7.23,4.73c1.23-3.09,4.01-5.57,6.78-6.19c2.86-0.63,5.83,0.02,8.76,0.02
				c1.41-0.02,2.84-0.24,4.13-0.81c1.28-0.57,2.42-1.51,3.09-2.73c0.66,1.13,1.16,2.35,1.33,3.62
				C27.97,21.54,27.8,23.03,27.08,24.06z"/>
		</g>
	</g>
</g>
</svg>
