<?xml version="1.0" encoding="utf-8"?>
<!-- Generator: Adobe Illustrator 27.5.0, SVG Export Plug-In . SVG Version: 6.00 Build 0) -->
<svg version="1.1" xmlns="http://www.w3.org/2000/svg" xmlns:xlink="http://www.w3.org/1999/xlink" x="0px" y="0px"
     viewBox="0 0 2200 2200" xml:space="preserve">
<g id="Objects">
	<g>
		<g>
			<path style="fill:#0DA037;" d="M1416.41,1210.146c-129.943,76.645-278.313,87.452-461.939,72.465
				c-282.162-23.032-572.407,68.844-705.176,489.19c49.764-238.121,173.22-469.661,378.682-599.761
				c106.265-67.286,228.258-104.486,347.739-143.781c119.489-39.302,240.34-82.627,339.813-159.618
				c98.244-76.031,173.842-191.088,173.685-315.088c-56.588,199.204-167.356,286.216-373.628,367.064
				c-169.969,66.624-345.346,96.859-483.538,161.649c2.55-288.569,350.321-360.578,474.47-428.784
				C1332.5,529.332,1370.55,436.905,1392.488,288c124.15,36.271,292.542,213.431,292.229,473.84
				C1684.495,947.308,1576.162,1115.924,1416.41,1210.146z"/>
		</g>
		<g>
			<path style="fill:#0DA037;" d="M1901.964,1654.063c-63.404,117.691-188.032,198.254-321.581,234.331
				c-177.18,47.849-374.829,22.085-532.013-69.356c-110.097-64.048-199.199-159.641-255.194-270.29
				c198.516-18.078,351.969,114.695,638.326,82.612c174.671-19.576,276.609-86.396,340.105-187.69
				c-121.79,93.425-276.447,138.966-426.843,125.088c-284.628-26.265-334.686-106.591-565.186-98.054
				c-165.674,6.136-353.9,73.535-502.328,326.736c85.565-213.038,278.271-383.961,470.77-426.213
				c198.818-43.618,404.889,13.48,608.424,11.141c97.813-1.13,196.611-16.488,285.911-56.441
				c88.827-39.743,167.891-105.183,213.77-190.975c45.392,78.999,79.38,164.83,90.64,254.261
				C1958.117,1479.327,1945.464,1573.343,1901.964,1654.063z"/>
		</g>
	</g>
</g>
</svg>
